<?xml version="1.0" encoding="UTF-8"?>
<svg width="60px" height="60px" viewBox="0 0 60 60" version="1.1" xmlns="http://www.w3.org/2000/svg" xmlns:xlink="http://www.w3.org/1999/xlink">
    <!-- Generator: Sketch 50.2 (55047) - http://www.bohemiancoding.com/sketch -->
    <title>maintenance-required</title>
    <desc>Created with Sketch.</desc>
    <defs></defs>
    <g id="Page-1" stroke="none" stroke-width="1" fill="none" fill-rule="evenodd">
        <g id="maintenance-required" transform="translate(-2.000000, -2.000000)" fill-rule="nonzero">
            <g id="Ebene_4" transform="translate(2.000000, 2.000000)" fill="#007CAA">
                <rect id="Rectangle-path" transform="translate(29.999600, 30.000000) rotate(-45.000000) translate(-29.999600, -30.000000) " x="8.79980331" y="8.80020331" width="42.3995934" height="42.3995934"></rect>
            </g>
            <g id="Ebene_3" transform="translate(12.000000, 22.000000)" fill="#FFFFFF">
                <polygon id="Shape" points="13 15.1 0.5 8.3 4.7 2.8 12.4 6.1 11.6 7.9 5.3 5.2 3.5 7.7 13 12.9 22.6 8.1 32.2 2.8 35.7 6.3 34.3 7.7 31.8 5.2 23.5 9.9"></polygon>
                <path d="M37,14.9 C37,16.1 36.1,17 35,17 C33.9,17 33,16.1 33,14.9 C33,13.7 35,10 35,10 C35,10 37,13.7 37,14.9 Z" id="Shape"></path>
                <polygon id="Shape" points="9 5 15 5 15 2 12 2 12 0 20 0 20 2 17 2 17 5 21 5 24 8 30 6 24 17 9 17"></polygon>
            </g>
        </g>
    </g>
</svg>