<?xml version="1.0" encoding="UTF-8"?>
<svg width="68px" height="60px" viewBox="0 0 68 60" version="1.1" xmlns="http://www.w3.org/2000/svg" xmlns:xlink="http://www.w3.org/1999/xlink">
    <title>out-of-specification</title>
    <g id="Page-1" stroke="none" stroke-width="1" fill="none" fill-rule="evenodd">
        <g id="out-of-specification" transform="translate(-2.000000, -6.000000)" fill-rule="nonzero">
            <g id="Ebene_1" fill="#FFCC00">
                <polygon id="Shape" points="36 6 2 66 70 66"></polygon>
            </g>
            <g id="Ebene_2" transform="translate(30.000000, 27.000000)" fill="#FFFFFF">
                <path d="M7.8,17 L4.3,17 L4.3,15.7 C4.3,14.6 4.4,13.9 4.5,13.4 C4.7,12.8 5.3,12 6.3,10.9 C7.4,9.7 8.1,8.9 8.5,8.3 C9.1,7.4 9.4,6.5 9.4,5.6 C9.4,3.7 8.3,2.8 6,2.8 C4.6,2.8 3.1,3.2 1.3,4 L0.8,0.9 C2.6,0.4 4.5,0.1 6.5,0.1 C9,0.1 10.8,0.6 12,1.7 C13,2.6 13.5,3.8 13.5,5.4 C13.5,6.7 13.1,7.9 12.4,9 C11.9,9.7 11.2,10.6 10.1,11.6 C9.3,12.4 8.8,13 8.5,13.2 C8.3,13.5 8.1,13.8 8,14.1 C7.8,14.5 7.7,15.2 7.7,16 L7.7,17 L7.8,17 Z M6.1,19.4 C6.9,19.4 7.5,19.7 8,20.3 C8.4,20.8 8.6,21.3 8.6,21.9 C8.6,22.6 8.3,23.2 7.8,23.7 C7.3,24.1 6.7,24.4 6.1,24.4 C5.3,24.4 4.6,24.1 4.1,23.5 C3.7,23 3.5,22.5 3.5,21.8 C3.5,21.1 3.8,20.5 4.3,20 C4.8,19.7 5.4,19.4 6.1,19.4 Z" id="Shape"></path>
            </g>
        </g>
    </g>
</svg>