<?xml version="1.0" encoding="UTF-8"?>
<svg width="52px" height="52px" viewBox="0 0 52 52" version="1.1" xmlns="http://www.w3.org/2000/svg" xmlns:xlink="http://www.w3.org/1999/xlink">
    <!-- Generator: Sketch 50.2 (55047) - http://www.bohemiancoding.com/sketch -->
    <title>unknown</title>
    <desc>Created with Sketch.</desc>
    <defs></defs>
    <g id="Page-1" stroke="none" stroke-width="1" fill="none" fill-rule="evenodd">
        <g id="undefined" transform="translate(-6.000000, -6.000000)" fill-rule="nonzero">
            <g id="Ebene_1" fill="#506671">
                <polygon id="Shape" points="42.8 6 21.2 6 6 21.2 6 42.7 21.2 58 42.7 58 58 42.8 58 21.2"></polygon>
            </g>
            <g id="Ebene_2" transform="translate(29.000000, 20.000000)" fill="#FFFFFF">
                <path d="M3,19.4 C3.8,19.4 4.4,19.7 4.9,20.3 C5.3,20.8 5.5,21.3 5.5,21.9 C5.5,22.6 5.2,23.2 4.7,23.7 C4.2,24.1 3.6,24.4 3,24.4 C2.2,24.4 1.5,24.1 1,23.5 C0.6,23 0.4,22.5 0.4,21.8 C0.4,21.1 0.7,20.5 1.2,20 C1.7,19.7 2.3,19.4 3,19.4 Z M1.4,16.9 L0.8,0.5 L5.3,0.5 L4.7,16.9 L1.4,16.9 Z" id="Shape"></path>
            </g>
        </g>
    </g>
</svg>